<?xml version="1.0" encoding="UTF-8" standalone="no"?>
<svg xmlns="http://www.w3.org/2000/svg" height="11px" width="11px" version="1.1" xmlns:xlink="http://www.w3.org/1999/xlink" viewBox="0 0 11 11"><!-- Generator: sketchtool 3.7.1 (28215) - http://www.bohemiancoding.com/sketch -->
 <title>call</title>
 <desc>Created with sketchtool.</desc>
 <g id="Page-1" fill-rule="evenodd" fill="none">
  <g id="Mobile_menu_2" fill="#4C4C4C" transform="translate(-16 -1132)">
   <g id="call" transform="translate(16 1132)">
    <path id="Shape" d="m6.3684 7.6536s0.8684-0.5054 1.1-0.6541c0.2316-0.1189 0.4632-0.1486 0.6079-0.0594 0.2316 0.1486 2.0557 1.3973 2.2287 1.5162 0.145 0.1189 0.232 0.4162 0.029 0.7432-0.202 0.3271-1.1866 1.5455-1.6208 1.5455-0.4053 0-2.1421-0.059-5.4132-3.3887-3.2421-3.3595-3.2711-5.1432-3.3-5.5595-1.7764e-15 -0.4162 1.1868-1.427 1.5053-1.6648 0.3184-0.20814 0.6079-0.14868 0.7236 0.0297 0.1158 0.17838 1.3316 2.0514 1.4764 2.2892 0.0868 0.1486 0.0579 0.3865-0.0579 0.6243-0.1158 0.2379-0.6369 1.1297-0.6369 1.1297s0.3474 0.6244 1.5632 1.873c1.1868 1.2189 1.7947 1.5757 1.7947 1.5757z"/>
   </g>
  </g>
 </g>
</svg>
