<?xml version="1.0" encoding="UTF-8" standalone="no"?>
<svg xmlns:sketch="http://www.bohemiancoding.com/sketch/ns" xmlns="http://www.w3.org/2000/svg" height="17px" width="19px" version="1.1" xmlns:xlink="http://www.w3.org/1999/xlink" viewBox="0 0 19 17"><!-- Generator: sketchtool 3.5.2 (25235) - http://www.bohemiancoding.com/sketch -->
 <title>noun_60312_cc</title>
 <desc>Created with sketchtool.</desc>
 <g id="Page-1" fill-rule="evenodd" sketch:type="MSPage" fill="none">
  <g id="homepage" transform="translate(-946 -63)" fill="#981937" sketch:type="MSArtboardGroup">
   <g id="Group" sketch:type="MSLayerGroup">
    <g id="noun_60312_cc" sketch:type="MSShapeGroup" transform="translate(946 63)">
     <g id="Group">
      <path id="Shape" d="m18.36 7.5943c-0.014 0.1071-0.155 0.3243-0.396 0.6267-0.155 0.211-0.321 0.4122-0.506 0.5963-2.261 2.5637-7.9846 8.0267-7.9846 8.0267s-5.7232-5.463-7.9849-8.0265c-0.1843-0.1843-0.3506-0.3855-0.50514-0.5963-0.2413-0.3024-0.38212-0.5196-0.39626-0.6267-0.37367-0.7082-0.5871-1.5149-0.5871-2.3725 0-2.7978 2.2532-5.0658 5.0327-5.0658 1.9234-0.00001 3.5935 1.0869 4.4407 2.6832 0.8476-1.5963 2.5176-2.6832 4.4406-2.6832 2.78-0.00001 5.033 2.268 5.033 5.0658 0 0.8576-0.213 1.6643-0.587 2.3723zm-4.446-6.2462c-0.173 0-0.343 0.0155-0.51 0.038-0.043 0.0058-0.085 0.0124-0.127 0.0196-0.153 0.0257-0.303 0.0584-0.448 0.1013-0.013 0.0039-0.026 0.006-0.038 0.0098-0.161 0.0495-0.316 0.1114-0.467 0.1806-0.029 0.0132-0.057 0.0272-0.085 0.0411-0.136 0.0667-0.268 0.1406-0.395 0.2222l-0.002-0.0165s-0.17 0.1266-0.416 0.3298c-0.01 0.0091-0.022 0.0161-0.033 0.0252-0.007 0.006-0.013 0.0124-0.02 0.0185-0.512 0.4282-1.336 1.3906-1.8996 2.2232-0.5641-0.8326-1.3872-1.795-1.9-2.2232-0.0065-0.0061-0.0133-0.0125-0.0201-0.0185-0.0105-0.0091-0.0225-0.0161-0.0331-0.0252-0.2459-0.2032-0.4153-0.3298-0.4153-0.3298l-0.0021 0.0165c-0.1268-0.0816-0.2588-0.1557-0.3952-0.2222-0.028-0.0139-0.0559-0.0279-0.0844-0.0411-0.1514-0.0692-0.3063-0.1311-0.4674-0.1806-0.0125-0.0038-0.0253-0.0059-0.0376-0.0098-0.1459-0.0431-0.2958-0.0758-0.4482-0.1013-0.0422-0.007-0.0844-0.0138-0.1271-0.0196-0.1674-0.0223-0.3367-0.038-0.5102-0.038-2.1255 0-3.8486 1.7344-3.8486 3.8739 0 0.1521 0.011 0.3017 0.0279 0.4492 0.0051 0.0438 0.0133 0.0865 0.0196 0.1298 0.0159 0.1054 0.0349 0.2096 0.0589 0.3122 0.0106 0.0448 0.022 0.089 0.034 0.1332 0.0285 0.1046 0.0614 0.207 0.0982 0.308 0.0126 0.0348 0.0243 0.0701 0.038 0.1043 0.0528 0.1328 0.111 0.2629 0.1775 0.388 0.049 0.092 0.1081 0.1772 0.1641 0.2644-0.0015 0.0019-0.0064 0.0087-0.0076 0.0102-0.2511 0.2911 7.3008 7.6637 7.6787 7.9457 0.3779-0.282 7.9296-7.6546 7.6786-7.9457-0.001-0.0015-0.006-0.0083-0.007-0.0102 0.055-0.0874 0.115-0.1724 0.164-0.2644 0.066-0.1251 0.124-0.2552 0.177-0.388 0.014-0.0344 0.025-0.0697 0.038-0.1043 0.037-0.101 0.07-0.2034 0.098-0.308 0.012-0.0442 0.024-0.0884 0.034-0.1332 0.024-0.1024 0.043-0.2066 0.059-0.3122 0.007-0.0433 0.015-0.086 0.02-0.1298 0.017-0.1477 0.028-0.2971 0.028-0.4492 0-2.1395-1.723-3.8739-3.849-3.8739z"/>
     </g>
    </g>
   </g>
  </g>
 </g>
</svg>
