<?xml version="1.0" encoding="UTF-8" standalone="no"?>
<svg xmlns:sketch="http://www.bohemiancoding.com/sketch/ns" xmlns="http://www.w3.org/2000/svg" height="17px" width="17px" version="1.1" xmlns:xlink="http://www.w3.org/1999/xlink" viewBox="0 0 17 17"><!-- Generator: sketchtool 3.4.4 (395) - http://www.bohemiancoding.com/sketch -->
 <title>noun_101408_cc</title>
 <desc>Created with sketchtool.</desc>
 <g id="Welcome" fill-rule="evenodd" sketch:type="MSPage" fill="none">
  <g id="Feed-page" transform="translate(-1117 -63)" fill="#981937" sketch:type="MSArtboardGroup">
   <g id="Group" transform="translate(0 -2)" sketch:type="MSLayerGroup">
    <g id="noun_101408_cc" sketch:type="MSShapeGroup" transform="translate(1117 65)">
     <g id="Group">
      <path id="Shape" d="m10.73 8.5548c1.226-0.85 2.09-2.3032 2.09-3.8935 0-2.4952-2.09-4.6613-4.4593-4.6613-2.3689 0-4.4591 2.1661-4.4591 4.6613 0 1.5903 0.864 3.0435 2.0902 3.8935-3.4557 1.0146-5.9918 4.1682-5.9918 7.8972 0 0.301 0.25082 0.548 0.55738 0.548h15.886c0.306 0 0.557-0.247 0.557-0.548 0-2.633-2.173-6.7382-6.27-7.8972zm-5.7136-3.8935c0-1.6726 1.4213-3.5645 3.3443-3.5645 1.9233 0 3.3443 1.8919 3.3443 3.5645s-1.421 3.5645-3.3443 3.5645c-1.923 0-3.3443-1.8919-3.3443-3.5645zm-3.8738 11.242c0.2787-3.674 3.4279-6.5804 7.2181-6.5804 3.7903 0 6.9393 2.9064 7.2183 6.5804h-14.436-0.0004z"/>
     </g>
    </g>
   </g>
  </g>
 </g>
</svg>
